<svg xmlns="http://www.w3.org/2000/svg" viewBox="0 0 512 512" width="100%" height="100%">
  <defs>
    <clipPath id="icon-clip">
      <rect x="32" y="32" width="448" height="448" rx="96" ry="96" />
    </clipPath>
  </defs>

  <g clip-path="url(#icon-clip)">
    <rect x="32" y="32" width="448" height="448" fill="#6B5364" />

    <path d="M 32 480 L 480 32 L 480 480 Z" fill="#006AFE" />
  </g>

  <path d="M 120 120
           L 392 120
           A 32 32 0 0 1 424 152
           L 424 320
           A 32 32 0 0 1 392 352
           L 180 352
           L 92 416
           L 124 336
           A 32 32 0 0 1 120 320
           L 120 152
           A 32 32 0 0 1 120 120 Z"
        fill="#FFFFFF" />

  <text x="264" y="268"
        font-family="Arial, Helvetica, sans-serif"
        font-size="82"
        font-weight="900"
        fill="#006AFE"
        text-anchor="middle"
        dominant-baseline="middle">Zalo</text>
</svg>
